<svg width="258" height="174" viewBox="0 0 258 174" fill="none" xmlns="http://www.w3.org/2000/svg">
<path d="M62.0258 2.74046C63.7821 2.52857 65.5545 2.77898 67.3204 2.67625C67.9486 2.55747 68.3716 3.10964 68.6953 3.55588C68.6537 13.8225 68.612 24.0892 68.6312 34.3558C68.4614 44.1441 68.6537 53.9356 68.5671 63.7239C68.1088 68.334 65.5352 72.6807 61.7726 75.3646C61.4521 73.4833 61.638 71.57 61.5899 69.6727C61.6348 48.2694 61.5611 26.8661 61.622 5.46603C61.622 4.54145 61.7213 3.61688 62.0258 2.74046Z" fill="#CC3909"/>
<path d="M135.74 116.769C139.659 116.252 143.932 117.238 146.887 119.973C149.963 122.724 151.425 126.93 151.531 130.987C151.688 134.48 150.832 138.101 148.742 140.943C146.624 143.816 143.316 145.887 139.727 146.159C137.099 146.416 134.352 146.307 131.916 145.2C127.711 143.415 124.705 139.273 124.07 134.772C123.481 130.644 123.933 126.156 126.243 122.589C128.269 119.283 131.929 117.199 135.74 116.769ZM135.381 121.896C132.086 122.766 130.192 126.146 129.907 129.36C129.82 131.845 129.685 134.439 130.756 136.76C131.701 139.276 134.131 141.241 136.861 141.315C138.881 141.466 141.127 141.145 142.608 139.633C144.992 137.492 145.675 134.082 145.601 131.007C145.425 128.175 144.73 125.068 142.438 123.183C140.496 121.53 137.762 121.514 135.381 121.896Z" fill="#CC3909"/>
<path d="M166.165 116.758C170.248 116.229 174.674 117.368 177.655 120.306C180.062 122.736 181.337 126.072 181.853 129.41C182.324 132.646 181.597 135.947 180.312 138.919C178.51 142.621 174.908 145.452 170.818 146.094C167.607 146.525 164.152 146.37 161.261 144.765C157.986 143.138 155.752 139.905 154.723 136.457C153.96 134.059 154.204 131.513 154.236 129.038C154.701 125.693 156.165 122.399 158.668 120.084C160.72 118.19 163.402 117.051 166.165 116.758ZM165.591 121.946C164.255 122.351 163.024 123.121 162.168 124.238C160.543 126.306 160.079 129.035 160.184 131.606C160.082 134.235 160.752 136.983 162.45 139.041C164.364 141.221 167.572 141.773 170.286 141.073C172.873 140.431 174.671 138.085 175.379 135.609C175.837 133.558 176.158 131.414 175.677 129.333C175.437 126.768 174.302 124.088 172.03 122.701C170.136 121.468 167.722 121.58 165.591 121.946Z" fill="#CC3909"/>
<path d="M189.718 117.808C193.372 116.148 197.67 116.27 201.372 117.718C204.407 118.96 206.753 122.055 206.57 125.42C204.727 125.596 202.849 125.68 201.013 125.455C200.497 124.479 200.349 123.272 199.471 122.521C197.952 121.195 195.782 121.262 193.898 121.352C192.093 121.339 190.286 122.996 190.584 124.877C190.494 125.946 191.359 126.752 192.276 127.118C195.763 128.591 199.683 128.755 203.106 130.402C205.644 131.571 207.724 134.168 207.49 137.08C207.708 139.712 206.448 142.396 204.301 143.927C201.814 145.85 198.564 146.313 195.51 146.325C192.657 146.258 189.699 145.683 187.382 143.921C185.1 142.261 183.7 139.449 183.776 136.621C185.687 136.226 187.719 136.229 189.626 136.643C189.523 139.137 191.657 141.093 193.975 141.529C196.035 141.863 198.321 141.898 200.183 140.81C201.779 139.895 202.375 137.43 201 136.065C199.18 134.309 196.507 134.168 194.205 133.446C191.427 132.733 188.401 132.03 186.433 129.76C184.251 127.612 184.286 124.049 185.661 121.477C186.51 119.811 188.007 118.53 189.718 117.808Z" fill="#CC3909"/>
<path d="M98.4824 117.443C99.3093 117.324 100.146 117.372 100.979 117.376C105.03 117.446 109.084 117.344 113.136 117.417C115.087 117.53 117.161 118.002 118.619 119.395C120.529 121.151 120.802 124.108 120.135 126.49C119.664 128.198 118.03 129.061 116.946 130.32C118.283 131.081 119.747 131.819 120.581 133.18C121.847 134.971 121.885 137.273 121.674 139.373C121.193 141.328 119.815 142.952 118.177 144.063C116.187 145.251 113.825 145.675 111.533 145.668C107.46 145.668 103.389 145.716 99.3189 145.61C98.8029 145.559 97.9055 145.594 98.1138 144.814C98.1042 136.461 98.1234 128.108 98.101 119.758C98.1523 118.981 97.9984 118.114 98.4824 117.443ZM104.101 122.621C104.133 124.692 103.918 126.798 104.309 128.846C106.392 128.981 108.479 128.901 110.562 128.926C111.988 128.949 113.655 128.487 114.357 127.125C114.818 125.52 114.834 123.222 113.068 122.409C110.719 121.562 108.184 121.976 105.742 121.844C105.113 121.848 104.027 121.655 104.101 122.621ZM104.319 133.065C103.947 133.694 104.123 134.461 104.085 135.158C104.155 136.882 103.998 138.612 104.142 140.333C104.165 141.02 104.94 141.039 105.456 141.071C107.799 141.19 110.152 141.068 112.491 140.917C113.847 140.885 115.161 139.954 115.61 138.67C115.857 137.546 115.873 136.355 115.587 135.238C115.177 133.912 113.802 133.174 112.507 132.991C110.482 132.846 108.447 133.01 106.418 132.885C105.719 132.894 104.969 132.743 104.319 133.065Z" fill="#CC3909"/>
<path opacity="0.4" d="M68.6956 3.55859C68.9552 5.03856 68.8751 6.5442 68.8494 8.04022C68.8302 16.9168 68.8206 25.7966 68.843 34.6731C68.8943 36.0696 68.7725 37.4597 68.7116 38.853C68.9007 46.3395 68.7501 53.8356 68.859 61.3253C68.8783 62.1343 68.7853 62.9465 68.5674 63.7266C68.6539 53.9383 68.4616 44.1468 68.6315 34.3585C68.6122 24.0919 68.6539 13.8252 68.6956 3.55859Z" fill="#3B1001"/>
<path opacity="0.19" d="M163.925 16.9876C165.553 16.5927 167.232 16.7532 168.892 16.7372C194.106 16.7018 219.319 16.7243 244.533 16.7404C246.491 16.8303 248.539 16.3969 250.43 17.0871C241.52 16.933 232.607 17.0132 223.697 17.0325C203.772 16.994 183.847 17.0935 163.925 16.9876Z" fill="#0B0B0C"/>
<path d="M52.5038 17.3029C54.3082 16.8117 56.1959 16.953 58.042 17.0236C59.356 17.0621 59.2759 18.6352 59.3304 19.5822C59.3239 26.3239 59.3816 33.0689 59.2598 39.8106C59.263 51.4705 59.2182 63.1336 59.1765 74.7968C59.0772 75.747 59.3239 77.1018 58.2599 77.5801C57.1606 78.0585 56.0356 78.5111 54.8594 78.7487C53.9716 78.8321 53.0807 78.8193 52.1897 78.7904C52.3243 76.1804 52.1961 73.564 52.2121 70.9508C52.2249 63.4547 52.3179 55.9617 52.2313 48.4656C52.1192 42.0289 52.2121 35.589 52.1673 29.149C52.3563 25.2003 51.866 21.2227 52.5038 17.3029Z" fill="#106FB6"/>
<path d="M107.012 17.2605C107.871 17.1449 108.733 17.055 109.601 17.0646C127.71 17.1256 145.818 17.0871 163.926 16.9844C183.848 17.0903 203.773 16.9908 223.698 17.0293C232.608 17.0101 241.521 16.9298 250.431 17.0839C252.924 17.3728 255.354 18.7982 256.463 21.1161C257.306 22.4965 257.1 24.1563 257.174 25.6972C257.117 72.3466 257.123 118.996 257.129 165.645C257.328 169.482 253.809 172.885 250.001 172.74C234.512 172.885 219.016 172.75 203.523 172.795C185.335 172.788 167.143 172.885 148.958 172.766C148.17 172.685 147.673 172.047 147.205 171.488C147.026 170.214 147.904 168.698 149.337 168.888C182.78 168.862 216.221 168.891 249.665 168.872C251.761 168.974 253.389 167.035 253.277 165.003C253.469 147.022 253.21 129.041 253.229 111.06C253.162 92.7675 253.155 74.475 253.168 56.1825C253.283 45.4696 253.223 34.7568 253.142 24.0471C253.162 22.8047 252.046 21.9861 251.12 21.3633C244.117 21.1674 237.102 21.328 230.095 21.2798C212.045 21.1867 193.995 21.2991 175.941 21.283C154.365 21.2381 132.786 21.2766 111.21 21.267C108.88 21.3472 106.15 20.7982 104.291 22.58C102.57 23.9058 102.022 26.1531 102.034 28.2334C102.031 50.2755 102.044 72.3209 102.031 94.363C101.711 98.636 97.8905 102.382 93.583 102.492C90.4806 102.578 87.3718 102.517 84.2694 102.533C83.8687 102.54 83.4873 102.678 83.1092 102.79C83.0771 101.4 83.1412 100.01 83.404 98.6456C86.5769 98.8703 89.7659 98.5782 92.9452 98.6488C95.7239 98.7804 98.336 96.2346 98.0764 93.4224C98.2046 71.5889 98.0091 49.7522 98.0507 27.9156C98.0892 25.6587 98.634 23.3473 99.9224 21.466C101.618 19.2348 104.147 17.4242 107.012 17.2605Z" fill="#B4B9C7"/>
<path d="M24.211 38.0832C26.0538 37.0976 28.2268 37.6883 30.2171 37.4219C30.3805 37.531 30.7043 37.7493 30.8645 37.8617C30.8292 45.9935 30.8292 54.1317 30.8677 62.2634C30.9094 67.5958 33.483 72.6713 37.2776 76.3183C40.0083 78.6714 43.2998 80.4628 46.8605 81.1338C51.9564 82.2799 57.5106 81.2846 61.879 78.4082C66.4909 75.4386 69.9363 70.5718 70.9106 65.1399C70.9939 63.5347 71.3593 61.952 71.2984 60.3404C71.2727 52.8026 71.2567 45.2583 71.324 37.7204C71.6766 37.2967 72.2727 37.5439 72.7438 37.4829C74.3912 37.5792 76.1571 37.1586 77.7019 37.897C77.8013 38.1827 77.9968 38.7477 78.0961 39.0303C77.8686 39.6498 77.4487 40.1539 76.9487 40.5744C76.1443 40.5648 75.3463 40.5808 74.5482 40.645C74.2213 41.7269 74.3495 42.8634 74.3303 43.9742C74.2822 48.6934 74.2886 53.4093 74.2822 58.1285C74.2598 60.578 74.4393 63.0564 73.9681 65.4802C73.0323 70.5011 70.4619 75.2171 66.6223 78.604C64.8147 80.4403 62.536 81.6988 60.2028 82.7357C58.2926 83.6089 56.2414 84.1643 54.155 84.3858C53.5685 84.4372 53.0269 84.6651 52.5012 84.9123C52.4115 86.7872 52.4916 88.6652 52.4596 90.54C52.4339 90.967 52.6711 91.3426 52.7993 91.7375C57.533 91.8627 62.27 91.7054 67.0069 91.8402C68.4812 91.8723 70.026 91.6701 71.4202 92.28C73.2374 92.9799 74.2854 94.7327 75.186 96.354C76.1283 99.1277 76.9359 101.946 77.6955 104.775C62.379 104.938 47.056 104.765 31.7395 104.861C29.9415 104.929 27.932 104.723 26.6436 103.317C25.0795 101.725 25.3616 99.3203 25.3455 97.2817C25.4673 93.8595 25.1597 90.4277 25.4609 87.0119C27.8646 86.8995 30.2748 86.9701 32.6817 86.9477C34.3643 86.8995 36.0533 87.1018 37.6815 87.5287C40.6044 88.5849 43.2934 90.1773 46.1842 91.3169C47.1522 91.5545 48.1489 91.6669 49.1328 91.8434C49.9341 90.3314 49.2354 88.6042 49.3924 86.9862C49.3123 86.2157 49.6841 85.2783 49.104 84.6427C48.4694 84.3505 47.7355 84.3922 47.0592 84.2574C40.1813 83.2205 34.0502 78.7003 30.685 72.6521C28.3326 68.5557 27.4608 63.7338 27.6275 59.0499C27.7236 53.496 27.6691 47.9421 27.7845 42.3915C27.807 41.7655 27.6627 41.1587 27.4736 40.568C26.3327 40.4524 25.0379 40.6386 24.1309 39.7783C24.1341 39.2132 24.1597 38.6482 24.211 38.0832Z" fill="#B4B9C7"/>
<path opacity="0.33" d="M51.9973 35.3219C52.0262 33.2641 51.8627 31.1934 52.1672 29.1484C52.2121 35.5884 52.1191 42.0283 52.2313 48.465C52.3178 55.9611 52.2249 63.454 52.2121 70.9502C52.196 73.5634 52.3242 76.1798 52.1896 78.7898C53.0806 78.8187 53.9716 78.8315 54.8594 78.7481C53.9556 78.9343 52.9652 79.2071 52.0903 78.7609C52.071 78.5811 52.0294 78.2152 52.0101 78.0354C51.8916 68.2856 52.1576 58.5358 51.9813 48.786C52.0198 44.298 51.9621 39.8099 51.9973 35.3219Z" fill="#051927"/>
<path d="M42.7669 32.4466C42.8535 31.6472 42.6131 30.3534 43.6226 30.0709C44.9848 29.8269 46.3821 30.1255 47.7603 30.0356C48.3404 30.0934 49.241 29.8847 49.4974 30.5846C50.0198 32.652 49.757 34.8029 49.7538 36.9089C49.7441 49.2173 49.8179 61.5257 49.7698 73.8342C49.6704 75.5838 49.8916 77.327 49.8339 79.0766C47.475 78.9932 45.2027 78.2034 43.1163 77.1376C42.5746 76.9064 42.7605 76.2451 42.6964 75.786C42.6259 61.3395 42.7124 46.893 42.7669 32.4466Z" fill="#DAB510"/>
<path d="M163.255 43.4969C164.835 43.0635 166.421 43.5772 167.988 43.7858C171.37 44.6173 174.53 46.6687 176.257 49.7539C177.946 52.3253 178.286 55.4522 178.623 58.4346C178.411 60.1329 178.299 61.8504 177.802 63.5005C176.652 67.3047 173.866 70.7237 170.091 72.1299C165.87 73.7736 160.857 73.475 156.983 71.064C154.367 69.3529 152.39 66.7172 151.448 63.7381C150.749 61.0863 150.323 58.2901 150.896 55.571C151.457 51.5998 153.582 47.696 157.047 45.558C158.922 44.3926 161.059 43.6831 163.255 43.4969ZM162.678 48.6977C160.902 49.0701 159.338 50.2033 158.383 51.7443C157.05 53.7026 156.922 56.1424 156.704 58.4282C156.838 60.563 157.043 62.8071 158.184 64.6787C159.418 66.8521 161.886 68.2807 164.405 68.0881C166.633 68.3288 168.931 67.4332 170.306 65.6386C172.735 62.6433 172.822 58.4571 172.091 54.839C171.559 52.6464 170.399 50.3734 168.261 49.3879C166.578 48.4151 164.543 48.3509 162.678 48.6977Z" fill="#7F8EA2"/>
<path d="M124.632 44.429C127.296 44.0502 129.997 44.2813 132.677 44.2075C135.561 44.2428 138.468 44.0213 141.327 44.5125C143.391 44.7789 145.42 46.0213 146.259 47.9893C147.003 49.4339 146.731 51.1129 146.715 52.6732C146.439 54.6764 144.782 55.9862 143.247 57.0745C144.276 57.646 145.417 58.0986 146.227 58.9879C147.573 60.3587 148.077 62.3138 148.279 64.1726C148.423 67.4985 146.096 70.6735 142.971 71.7168C140.305 72.7185 137.411 72.4681 134.622 72.5034C131.289 72.4424 127.953 72.59 124.626 72.4295C124.623 63.0971 124.62 53.7615 124.632 44.429ZM130.613 48.885C130.251 51.0551 130.594 53.2831 130.581 55.4726C131.587 56.0183 132.843 55.6267 133.949 55.7133C135.847 55.5849 137.927 56.0986 139.657 55.0905C141.01 54.2623 141.381 52.3361 140.814 50.9235C140.426 49.694 139.116 48.8914 137.856 48.9267C135.443 48.9203 133.026 48.8978 130.613 48.885ZM130.603 60.3908C130.267 62.2817 130.712 64.2079 130.545 66.118C130.517 66.7697 130.404 67.9383 131.388 67.8676C133.962 67.8933 136.564 68.0988 139.119 67.6911C140.218 67.598 141.183 66.8821 141.776 65.9832C142.298 64.6862 142.019 63.2544 141.91 61.9093C141.276 60.9237 140.33 60.1019 139.135 59.9285C136.911 59.4983 134.622 59.8836 132.372 59.7519C131.773 59.7776 130.747 59.5689 130.603 60.3908Z" fill="#7F8EA4"/>
<path d="M48.123 111.008C54.3439 110.943 60.5679 111.056 66.7856 110.953C67.4138 113.669 68.3849 116.295 69.0996 118.992C64.5485 119.12 59.991 119.037 55.4368 119.03C54.3824 119.046 53.3311 119.159 52.2863 119.29L52.235 119.297C52.1645 119.149 52.0235 118.854 51.953 118.706C51.437 117.486 50.2608 116.639 49.9948 115.306C49.6743 113.753 48.8249 112.404 48.123 111.008Z" fill="#7F8EA4"/>
<path d="M182.545 44.1716C186.654 44.1748 190.763 44.1556 194.871 44.1523C198.531 44.2005 202.368 45.6259 204.598 48.6532C206.358 50.8844 207.018 53.7288 207.384 56.4897C207.627 60.5604 206.925 64.9521 204.31 68.2074C202.204 70.8527 198.884 72.3968 195.522 72.445C191.888 72.5124 188.25 72.4514 184.615 72.506C183.789 72.4835 182.875 72.6344 182.18 72.0758C182.215 64.3164 182.34 56.5571 182.228 48.8009C182.244 47.2535 182.045 45.6644 182.545 44.1716ZM188.356 49.321C188.452 54.8171 188.256 60.3099 188.279 65.8028C188.308 66.3133 188.429 66.8109 188.535 67.3117C190.09 67.6456 191.686 67.4626 193.259 67.4979C195.551 67.4818 198.153 67.0356 199.586 65.042C201.893 61.9215 201.557 57.7128 200.695 54.1429C199.996 51.4077 197.326 49.4109 194.535 49.337C192.477 49.3146 190.413 49.2696 188.356 49.321Z" fill="#7D8FA2"/>
<path d="M131.06 80.3101C133.858 79.6552 136.813 80.1624 139.47 81.1448C142.361 82.2138 144.512 84.9234 144.871 87.9956C145.396 88.901 144.217 88.9684 143.611 88.9395C142.153 88.9042 140.666 89.0904 139.23 88.7854C138.781 87.864 138.656 86.7372 137.839 86.0406C136.269 84.6344 134.015 84.6152 132.038 84.7596C130.702 84.8656 129.282 85.6553 128.952 87.039C128.42 88.3488 129.013 90.0599 130.394 90.5479C133.756 91.9476 137.493 92.1915 140.852 93.6201C143.15 94.6153 145.223 96.5961 145.643 99.158C146.377 102.054 145.14 105.274 142.832 107.12C140.361 109.132 137.073 109.701 133.967 109.659C130.173 109.733 125.974 108.564 123.699 105.306C122.635 103.726 121.75 101.717 122.202 99.7904C123.865 99.7904 125.542 99.6588 127.202 99.845C127.913 100.083 127.814 100.981 128.099 101.553C128.714 103.803 131.125 105.081 133.336 105.1C135.313 105.19 137.592 105.161 139.115 103.697C140.124 102.837 140.14 101.331 139.791 100.156C139.025 98.9268 137.647 98.2238 136.297 97.8225C133.394 97.0616 130.42 96.4838 127.654 95.2863C125.426 94.3361 123.497 92.3713 123.099 89.9154C122.859 88.092 123.138 86.1497 124.147 84.5863C125.612 82.1625 128.339 80.7724 131.06 80.3101Z" fill="#7D8FA2"/>
<path d="M188.638 80.1354C191.92 79.5896 195.365 80.4211 198.211 82.0969C202.48 84.6812 204.576 89.8659 204.595 94.7006C204.858 99.9527 202.269 105.478 197.573 108.046C195.221 109.436 192.423 109.731 189.747 109.683C186.382 109.523 182.949 108.235 180.699 105.654C178.007 102.848 176.757 98.8805 176.805 95.0377C176.702 90.9413 178.103 86.6909 181.064 83.7887C183.08 81.7469 185.846 80.6073 188.638 80.1354ZM188.317 85.32C187.083 85.7631 185.862 86.4083 185.026 87.4453C183.683 89.0183 183.196 91.089 182.869 93.0826C182.552 95.9816 182.939 99.0667 184.475 101.593C185.789 103.831 188.503 104.903 191.019 104.694C193.468 104.884 195.827 103.462 197.025 101.359C198.958 98.0458 198.926 93.9302 197.9 90.3282C197.314 88.5785 196.227 86.8899 194.564 86.0038C192.711 84.8417 190.381 84.9797 188.317 85.32Z" fill="#7D8FA2"/>
<path d="M149.306 80.8071C151.207 80.7108 153.111 80.7686 155.014 80.7461C155.12 81.1089 155.258 81.4652 155.296 81.844C155.402 85.08 155.226 88.3193 155.36 91.5553C159.19 91.8378 163.04 91.4782 166.876 91.6805C167.334 88.0656 166.671 84.3834 167.27 80.7782C169.148 80.7397 171.03 80.7332 172.911 80.7878C173.097 85.8473 172.924 90.9132 172.994 95.9759C172.953 100.31 173.084 104.65 172.93 108.981C171.062 109.119 169.187 109.068 167.315 109.052C167.19 108.564 167.033 108.076 167.033 107.568C166.921 103.934 167.177 100.294 166.902 96.6661C163.283 96.7143 159.668 96.7175 156.049 96.679C155.614 96.6019 155.168 96.7978 155.242 97.305C155.277 100.079 155.261 102.856 155.3 105.629C155.296 106.779 155.348 107.95 154.995 109.064C153.091 109.029 151.191 109.09 149.287 109.045C149.13 106.942 149.271 104.833 149.249 102.727C149.309 95.4205 149.075 88.1106 149.306 80.8071Z" fill="#7D8FA2"/>
<path d="M206.884 44.5105C208.371 43.968 209.973 44.2119 211.521 44.1863C212.303 44.2312 213.342 44.0835 213.787 44.9054C215.925 48.3436 217.806 51.9392 219.995 55.3454C220.338 54.9922 220.726 54.6616 220.963 54.2218C222.123 51.875 223.668 49.7498 224.909 47.4448C225.607 46.3019 226.165 45.0274 227.213 44.1445C229.283 44.2794 231.386 43.9519 233.431 44.4142C230.764 48.9055 227.934 53.294 225.351 57.8334C224.617 59.1015 223.655 60.2508 223.088 61.6087C222.873 65.2075 223.2 68.8288 222.931 72.4243C221.264 72.5303 219.588 72.5496 217.922 72.4693C217.54 72.4982 217.278 72.2349 217.024 72.0038C217.108 68.7614 216.983 65.5189 217.031 62.2733C217.153 61.1208 216.207 60.3214 215.733 59.3776C212.803 54.4112 209.73 49.525 206.884 44.5105Z" fill="#7E8FA2"/>
<path d="M33.7862 45.387C35.6483 45.2843 37.5232 45.2393 39.3853 45.3677C40.3468 45.4769 40.1224 46.7899 40.2314 47.493C40.3692 53.8045 40.2378 60.1256 40.2891 66.4404C40.3435 69.3489 40.1609 72.2543 40.1 75.1596C35.7508 71.869 33.158 66.4532 33.267 61.0053C33.3247 56.2829 33.2125 51.5605 33.4593 46.8445C33.4849 46.3437 33.642 45.8621 33.7862 45.387Z" fill="#566F6E"/>
<path d="M208.496 80.7941C212.707 80.701 216.925 80.7749 221.136 80.7588C224.011 80.701 227.126 81.6545 228.972 83.9788C231.78 87.6546 231.501 93.6001 227.908 96.666C226.213 98.0721 223.989 98.7688 221.806 98.788C219.361 98.8426 216.915 98.7688 214.47 98.8073C214.197 102.197 214.617 105.62 214.223 109C212.303 109.071 210.377 109.1 208.46 109.007C208.255 101.992 208.432 94.971 208.38 87.9532C208.428 85.5679 208.243 83.1698 208.496 80.7941ZM214.383 86.3223C214.451 88.8617 214.252 91.4011 214.367 93.9404C216.293 94.1844 218.248 94.2358 220.187 94.1523C221.271 94.0175 222.473 94.0753 223.38 93.3626C225.059 92.3385 225.319 90.0303 224.831 88.2838C224.527 86.7268 223.017 85.6257 221.482 85.5422C219.438 85.3785 217.377 85.6449 215.338 85.3656C214.787 85.2693 214.217 85.7316 214.383 86.3223Z" fill="#7D8EA4"/>
<path d="M4.48086 83.3295C4.91032 82.1994 6.22436 81.5445 7.39097 81.6473C10.5094 81.6986 13.631 81.5734 16.7495 81.689C16.7238 83.0373 16.6277 84.3857 16.6405 85.7372C16.6309 87.1369 17.1533 88.482 17.118 89.885C17.0475 96.8193 17.1565 103.757 17.0604 110.691L17.0475 110.97C12.8522 111.057 8.66014 110.967 4.46483 111.012C4.48086 112.02 4.43599 113.025 4.39753 114.033C4.07062 111.176 4.28535 108.267 4.02896 105.394C3.98409 100.983 3.96486 96.5721 4.03216 92.1643C4.56739 89.2493 3.9296 86.2445 4.48086 83.3295Z" fill="#DADADA"/>
<path d="M16.7488 81.6914C17.0244 83.1874 16.72 84.7059 16.7937 86.2148C16.9892 86.5069 17.1719 87.0366 17.6109 86.9692C20.2262 86.9403 22.8447 86.9242 25.4599 87.0141C25.1587 90.4299 25.4663 93.8618 25.3445 97.284C25.3606 99.3225 25.0785 101.727 26.6426 103.319C27.9309 104.726 29.9405 104.931 31.7385 104.864C47.055 104.767 62.378 104.941 77.6945 104.777C76.9349 101.949 76.1273 99.1299 75.185 96.3562C77.7137 96.1026 80.2553 96.3016 82.7904 96.247C82.8193 96.9116 82.8449 97.5793 82.909 98.2439C83.0308 98.3434 83.2776 98.5456 83.4026 98.6484C83.1397 100.013 83.0756 101.403 83.1077 102.793C83.0821 103.788 83.0051 104.793 82.8096 105.775C81.3834 105.968 79.9316 105.647 78.5118 105.901C77.9349 106.35 78.3964 107.12 78.406 107.718C78.6784 108.921 77.9733 110.231 76.8131 110.658C73.4832 111.063 70.0987 110.43 66.7848 110.954C60.5672 111.056 54.3431 110.944 48.1223 111.008C45.3852 110.925 42.6353 111.117 39.9047 110.864C39.7669 110.838 39.4977 110.787 39.3599 110.758C31.9275 110.658 24.492 110.79 17.0597 110.694C17.1558 103.759 17.0469 96.8217 17.1174 89.8874C17.1526 88.4845 16.6302 87.1393 16.6398 85.7396C16.627 84.3881 16.7232 83.0397 16.7488 81.6914Z" fill="#96A0B2"/>
<path d="M0.404297 92.2796C1.61257 92.2058 2.82405 92.1673 4.03232 92.1641C3.96502 96.5718 3.98425 100.983 4.02912 105.394C2.83687 105.436 1.64141 105.535 0.449166 105.455C0.388272 101.063 0.429937 96.6714 0.404297 92.2796Z" fill="#96A1B2"/>
<path d="M4.46379 111.014C8.65909 110.969 12.8512 111.059 17.0465 110.973C16.6298 112.61 17.3349 114.401 16.7388 115.99C14.2678 116.295 11.7615 116.039 9.27765 116.109C8.08861 116.058 6.80342 116.279 5.71373 115.679C5.05991 115.374 4.42533 114.806 4.39648 114.035C4.43494 113.027 4.47981 112.022 4.46379 111.014Z" fill="#B3B9C7"/>
<path d="M39.9046 110.863C42.6353 111.117 45.3851 110.924 48.1222 111.008C48.8241 112.404 49.6734 113.753 49.9939 115.306C50.2599 116.639 51.4361 117.486 51.9521 118.706C49.4843 118.969 47.0036 118.928 44.5294 118.851C42.8083 118.77 41.052 117.807 40.411 116.147C39.6034 114.491 40.004 112.626 39.9046 110.863Z" fill="#7A899F"/>
<path d="M208.413 120.718C208.413 119.598 208.291 118.416 208.801 117.379C215.829 117.383 222.861 117.415 229.886 117.363C230.585 117.665 230.351 118.513 230.402 119.11C230.358 120.111 230.499 121.139 230.239 122.121C227.717 122.455 225.127 122.172 222.582 122.227C222.294 123.193 222.387 124.198 222.454 125.19C222.521 131.89 222.377 138.596 222.592 145.296C220.707 146.105 218.557 145.547 216.56 145.678C216.031 144.144 216.458 142.516 216.323 140.937C216.211 136.648 216.355 132.356 216.249 128.067C216.172 126.124 216.39 124.179 216.176 122.246C213.714 122.204 211.243 122.387 208.791 122.185C208.484 121.758 208.407 121.229 208.413 120.718Z" fill="#CC390B"/>
<path d="M52.2861 119.291C53.331 119.159 54.3822 119.047 55.4366 119.031C59.9909 119.037 64.5483 119.121 69.0994 118.992C70.1026 122.01 70.9006 125.089 71.8332 128.132C72.8716 131.663 74.0126 135.166 75.0254 138.707C75.7689 141.391 76.74 144.01 77.3586 146.729C78.1278 150.299 74.8171 154.226 71.1185 153.712C68.8975 153.731 67.0194 152.049 66.1188 150.123C61.5613 139.821 56.8628 129.58 52.2861 119.291Z" fill="#96A0B4"/>
<path d="M126.968 170.278C127.266 169.193 128.484 168.792 129.497 168.879C130.99 168.712 132.167 170.843 131.09 171.98C130.292 173.097 128.76 172.808 127.625 172.481C127.199 171.851 126.487 171.078 126.968 170.278Z" fill="#B4BAC7"/>
<path d="M136.013 169.032C138.298 168.743 140.634 168.91 142.935 168.926C144.576 169.26 144.765 171.728 143.346 172.473C141.778 173.016 140.083 172.63 138.464 172.759C137.243 172.759 135.612 173.054 134.859 171.821C134.006 170.801 134.904 169.362 136.013 169.032Z" fill="#B3BAC7"/>
</svg>
